<svg width="218" height="218" viewBox="0 0 218 218" fill="none" xmlns="http://www.w3.org/2000/svg">
  <path d="M76.3 38.2C78.1 30.4 85.1 25 93.2 25H124.8C132.9 25 139.9 30.4 141.7 38.2L144.2 49H176C181.5 49 186 53.5 186 59C186 64.5 181.5 69 176 69H42C36.5 69 32 64.5 32 59C32 53.5 36.5 49 42 49H73.8L76.3 38.2ZM93.2 45C91.9 45 90.7 45.8 90.4 47L89.4 51.2H128.6L127.6 47C127.3 45.8 126.1 45 124.8 45H93.2ZM50.8 85C50.8 79.5 55.3 75 60.8 75H157.2C162.7 75 167.2 79.5 167.2 85V168.6C167.2 182.4 156 193.6 142.2 193.6H75.8C62 193.6 50.8 182.4 50.8 168.6V85ZM79 101C73.5 101 69 105.5 69 111V153C69 158.5 73.5 163 79 163C84.5 163 89 158.5 89 153V111C89 105.5 84.5 101 79 101ZM109 101C103.5 101 99 105.5 99 111V153C99 158.5 103.5 163 109 163C114.5 163 119 158.5 119 153V111C119 105.5 114.5 101 109 101ZM139 101C133.5 101 129 105.5 129 111V153C129 158.5 133.5 163 139 163C144.5 163 149 158.5 149 153V111C149 105.5 144.5 101 139 101Z" fill="#797B7E"/>
</svg>
